<?xml version="1.0" standalone="no"?>
<!DOCTYPE svg PUBLIC "-//W3C//DTD SVG 20010904//EN"
 "http://www.w3.org/TR/2001/REC-SVG-20010904/DTD/svg10.dtd">
<svg version="1.0" xmlns="http://www.w3.org/2000/svg"
 width="100.000000pt" height="100.000000pt" viewBox="0 0 100.000000 100.000000"
 preserveAspectRatio="xMidYMid meet">
<metadata>
Created by potrace 1.14, written by Peter Selinger 2001-2017
</metadata>
<g transform="translate(0.000000,100.000000) scale(0.100000,-0.100000)"
fill="#000000" stroke="none">
<path d="M325 899 c-93 -55 -189 -110 -212 -121 l-43 -22 0 -63 c-1 -35 -1
-147 -2 -250 l-1 -188 44 -28 c24 -16 122 -73 216 -128 l173 -99 32 19 c18 10
114 65 213 121 99 57 181 104 183 105 5 4 3 495 -2 504 -4 7 -120 76 -266 158
-19 11 -63 37 -97 57 -34 20 -63 36 -65 35 -2 0 -79 -45 -173 -100z"/>
</g>
</svg>
